# xmcd
#
# Track frame offsets: 
#        183
#        20795
#        48625
#        80043
#        108618
#        129358
#        160208
#        197985
#        222373
#        253173
#        276433
#        282653
#
# Disc length: 4177 seconds
#
# Revision: 0
# Processed by: cddbd v1.4PL0 Copyright (c) Steve Scherf et al.
# Submitted via: ExactAudioCopy v0.90b4
#
DISCID=c6104f0c
DTITLE=Liz Mc Comb - Rock my Soul
DYEAR=1900
DGENRE=Gospel
TTITLE0=I told Jesus, it would be alright if he changed my name
TTITLE1=Rock my soul
TTITLE2=In the upper room
TTITLE3=Travelling shoes
TTITLE4=Soul say yes
TTITLE5=All the cross
TTITLE6=Motherless child
TTITLE7=I don't know what I would do without the Lord
TTITLE8=Humble me
TTITLE9=Every time I feel the spirit
TTITLE10=Deep river/Steal away
TTITLE11=Rock my soul
EXTD=
EXTT0=
EXTT1=
EXTT2=
EXTT3=
EXTT4=
EXTT5=
EXTT6=
EXTT7=
EXTT8=
EXTT9=
EXTT10=
EXTT11=
PLAYORDER=
